HIERARCHY
ROOT WRIST
{
	OFFSET 0.000000 0.000000 0.000000
	CHANNELS 6 Xposition Yposition Zposition Yrotation Xrotation Zrotation
	JOINT THUMB_CMC_FE
	{
		OFFSET -0.225143 0.117753 -0.062308
		CHANNELS 3 Yrotation Xrotation Zrotation
		JOINT THUMB_CMC_AA
		{
			OFFSET -0.212856 -0.150507 0.098851
			CHANNELS 3 Yrotation Xrotation Zrotation
			JOINT THUMB_MCP_FE
			{
				OFFSET 0.322503 -0.167445 -0.031436
				CHANNELS 3 Yrotation Xrotation Zrotation
				JOINT THUMB_IP_FE
				{
					OFFSET -0.295233 -0.236404 0.025845
					CHANNELS 3 Yrotation Xrotation Zrotation
					End Site
					{
						OFFSET 0.000000 0.000000 0.000000
					}
				}
			}
		}
	}
	JOINT INDEX_MCP
	{
		OFFSET -1.076913 0.264198 -0.014768
		CHANNELS 3 Yrotation Xrotation Zrotation
		JOINT INDEX_PIP_FE
		{
			OFFSET -0.425053 0.013289 0.013619
			CHANNELS 3 Yrotation Xrotation Zrotation
			JOINT INDEX_DIP_FE
			{
				OFFSET -0.271505 -0.024898 0.000550
				CHANNELS 3 Yrotation Xrotation Zrotation
				End Site
				{
					OFFSET 0.000000 0.000000 0.000000
				}
			}
		}
	}
	JOINT MIDDLE_MCP
	{
		OFFSET -1.072991 0.019362 0.038780
		CHANNELS 3 Yrotation Xrotation Zrotation
		JOINT MIDDLE_PIP_FE
		{
			OFFSET -0.480704 0.002618 0.028696
			CHANNELS 3 Yrotation Xrotation Zrotation
			JOINT MIDDLE_DIP_FE
			{
				OFFSET -0.307486 -0.031129 -0.000643
				CHANNELS 3 Yrotation Xrotation Zrotation
				End Site
				{
					OFFSET 0.000000 0.000000 0.000000
				}
			}
		}
	}
	JOINT RING_MCP
	{
		OFFSET -0.994992 -0.195930 -0.005938
		CHANNELS 3 Yrotation Xrotation Zrotation
		JOINT RING_PIP_FE
		{
			OFFSET -0.436995 0.003792 0.019994
			CHANNELS 3 Yrotation Xrotation Zrotation
			JOINT RING_DIP_FE
			{
				OFFSET -0.295558 -0.038341 -0.006642
				CHANNELS 3 Yrotation Xrotation Zrotation
				End Site
				{
					OFFSET 0.000000 0.000000 0.000000
				}
			}
		}
	}
	JOINT PINKY_MCP
	{
		OFFSET -0.873858 -0.393246 -0.086282
		CHANNELS 3 Yrotation Xrotation Zrotation
		JOINT PINKY_PIP_FE
		{
			OFFSET -0.343972 -0.016492 0.013445
			CHANNELS 3 Yrotation Xrotation Zrotation
			JOINT PINKY_DIP_FE
			{
				OFFSET -0.224713 -0.036309 -0.010265
				CHANNELS 3 Yrotation Xrotation Zrotation
				End Site
				{
					OFFSET 0.000000 0.000000 0.000000
				}
			}
		}
	}
}
MOTION
Frames: 10
Frame Time: 0.008333334
2.442991 3.276859 4.838526 -170.331700 -63.963840 0.289693 -61.461180 4.834461 -60.978150 -119.352900 -30.976930 -6.156250 112.864000 -65.843230 56.047010 -4.562073 -8.459839 11.272080 140.955800 2.541984 178.027400 41.978470 -86.125670 -38.970210 2.052624 1.705005 27.045960 164.931700 -2.209320 164.944800 39.241670 -88.411320 -38.039030 6.002523 4.395453 9.605330 -169.014400 -2.747131 161.011600 31.479570 -85.617830 -0.271606 -0.199310 0.562923 -3.691711 -156.383000 -4.609894 155.363000 48.977500 -83.530610 -1.901093 -5.539795 0.809194 38.474800 
2.444534 3.276133 4.835735 -170.486800 -64.226010 0.150410 -61.461180 4.834465 -60.979550 -119.352900 -30.976900 -6.181549 112.864000 -65.843230 56.029070 -4.562103 -8.459808 11.272100 141.386800 2.559555 177.761500 41.978330 -86.125520 -38.378720 2.052636 1.705008 27.250970 165.197600 -2.184906 164.744900 39.240800 -88.411440 -37.614010 6.002511 4.395445 9.885768 -168.860600 -2.706757 160.841500 31.479640 -85.617740 -0.115479 -0.199310 0.562926 -3.616425 -156.195400 -4.534729 155.400900 48.977500 -83.530640 -1.452423 -5.539795 0.809167 38.959920 
2.445143 3.279063 4.833573 -170.897200 -64.357910 0.357139 -61.461180 4.834470 -60.973940 -119.352900 -30.976930 -6.188690 112.864000 -65.843260 56.039220 -4.562073 -8.459839 11.272070 141.686000 2.571655 177.523100 41.978340 -86.125670 -38.134370 2.052626 1.705002 27.313050 165.489700 -2.158051 164.643000 39.241370 -88.411440 -37.959170 6.002511 4.395432 10.244220 -168.966800 -2.734619 160.966900 31.479710 -85.617830 -0.814362 -0.199310 0.562924 -3.825836 -156.303500 -4.578064 155.641100 48.977650 -83.530610 -2.062347 -5.539795 0.809156 39.068660 
2.445799 3.281391 4.832774 -170.765900 -64.267820 0.069015 -61.461180 4.834466 -61.080750 -119.352900 -30.976930 -6.072296 112.864000 -65.843260 56.008120 -4.562073 -8.459839 11.272080 141.368700 2.558810 176.970400 41.978290 -86.125670 -38.172490 2.052623 1.705003 27.026170 165.400400 -2.166290 164.431400 39.241010 -88.411320 -38.326320 6.002518 4.395432 10.106250 -168.597000 -2.637543 160.923400 31.479760 -85.617740 -0.159668 -0.199310 0.562918 -3.757599 -156.119700 -4.504395 155.735500 48.977670 -83.530610 -1.811859 -5.539795 0.809169 39.012800 
2.444072 3.286670 4.830897 -170.979800 -64.424040 0.079706 -61.461180 4.834470 -61.156340 -119.352900 -30.976930 -5.984863 112.864000 -65.843260 55.965020 -4.562073 -8.459839 11.272070 141.025200 2.544806 176.584200 41.978120 -86.125610 -38.828980 2.052626 1.704992 26.867410 165.764400 -2.132751 164.321300 39.241330 -88.411440 -38.199710 6.002517 4.395451 9.480872 -168.163200 -2.523438 160.851300 31.479710 -85.617830 0.075556 -0.199310 0.562928 -3.692596 -155.938900 -4.431885 155.932900 48.977600 -83.530610 -2.047089 -5.539795 0.809170 38.988510 
2.441273 3.293277 4.830268 -171.052200 -64.458680 0.010688 -61.461180 4.834468 -61.197630 -119.352900 -30.976930 -5.951324 112.864000 -65.843230 55.969050 -4.562073 -8.459839 11.272050 140.817300 2.536293 176.056700 41.978150 -86.125610 -38.971860 2.052636 1.705002 26.612630 166.096400 -2.102051 164.142500 39.240990 -88.411320 -38.669250 6.002530 4.395463 9.032931 -167.529700 -2.356537 160.978200 31.479450 -85.617800 0.549838 -0.199310 0.562937 -4.063660 -155.477700 -4.246582 156.318600 48.977580 -83.530640 -2.014954 -5.539795 0.809161 39.078800 
2.432076 3.302462 4.826922 -172.583600 -66.763150 1.613256 -61.461180 4.834484 -64.250310 -119.352900 -30.976930 -3.908783 112.864000 -65.843260 58.318970 -4.562073 -8.459839 11.607880 143.535500 2.644950 178.261300 41.978300 -86.125550 -36.319670 2.052622 1.704992 26.625630 168.208300 -1.905396 165.340900 39.241160 -88.411440 -36.019290 6.002526 4.395443 4.953044 -167.220000 -2.274841 162.183200 31.479760 -85.617860 0.567024 -0.199310 0.562925 -4.517151 -157.421600 -5.024811 158.037100 48.977600 -83.530610 -5.130920 -5.539795 0.809187 39.389250 
2.424605 3.308044 4.826566 -172.075600 -66.947630 0.966507 -61.461180 4.834485 -64.307680 -119.353000 -30.976930 -3.882233 112.864000 -65.843260 58.289850 -4.562073 -8.459839 11.607870 142.914900 2.620663 177.885000 41.978210 -86.125670 -36.125370 2.052626 1.704996 26.172780 168.484900 -1.879425 165.368000 39.241090 -88.411320 -37.092010 6.002516 4.395450 5.125727 -166.966200 -2.207825 162.447200 31.479690 -85.617800 0.354205 -0.199310 0.562925 -4.263397 -157.014000 -4.862244 158.193600 48.977520 -83.530640 -4.921539 -5.539795 0.809199 39.350060 
2.414565 3.312410 4.826684 -171.178100 -66.853300 -0.037292 -61.461180 4.834478 -64.295230 -119.352900 -30.976930 -3.846222 112.864000 -65.843230 58.299400 -4.562073 -8.459839 11.607870 142.410900 2.600725 177.639900 41.978260 -86.125550 -37.316220 2.052627 1.705014 25.551940 168.967800 -1.833984 165.475300 39.241480 -88.411440 -37.374630 6.002518 4.395437 4.267185 -166.445600 -2.070190 162.579200 31.479600 -85.617800 0.827681 -0.199310 0.562931 -4.087341 -156.805000 -4.778748 158.440000 48.977620 -83.530670 -5.409576 -5.539795 0.809162 38.919640 
2.400628 3.315864 4.825435 -169.929400 -66.823090 -1.432220 -61.461180 4.834470 -64.287110 -119.352900 -30.976930 -3.861176 112.864000 -65.843260 58.282180 -4.562073 -8.459839 11.607860 143.071400 2.626827 177.794100 41.978440 -86.125670 -36.325620 2.052623 1.704997 25.778100 169.245900 -1.807770 165.592700 39.241230 -88.411320 -37.664460 6.002526 4.395451 4.529570 -166.610400 -2.113770 162.771300 31.479610 -85.617800 0.172543 -0.199310 0.562942 -3.700073 -156.840100 -4.792786 158.520000 48.977570 -83.530610 -5.402069 -5.539795 0.809159 38.434140 
